{"title":"Gravity Falls S01 E01-E12 1080p ANON","uid":7913391,"size":15830371341,"categoryP":"video","categoryS":"hd___tv_shows","magnet":"?xt=urn:btih:10b055c7f1d9775fc223ce5f0f5f8c829331f987&amp;dn=Gravity+Falls+S01+E01-E12+1080p+ANON&amp;tr=udp%3A%2F%2Ftracker.openbittorrent.com%3A80&amp;tr=udp%3A%2F%2Fopen.demonii.com%3A1337&amp;tr=udp%3A%2F%2Ftracker.coppersurfer.tk%3A6969&amp;tr=udp%3A%2F%2Fexodus.desync.com%3A6969","seeders":0,"leechers":1,"uploader":null,"files":12,"time":1355280830,"description":"1080p h.264 video in a .mp4 container, from the internet.\n\nScreenshot: &lt;a href=&quot;\nhttp://i.imgur.com/5q1IR.jpg&quot; rel=&quot;nofollow&quot; target=&quot;_NEW&quot;&gt;\nhttp://i.imgur.com/5q1IR.jpg&lt;/a&gt;\n\nExample media info:\n\nVideo\nID                             : 1\nFormat                         : AVC\nFormat/Info                    : Advanced Video Codec\nFormat profile                 : &lt;a class=&quot;__cf_email__&quot; href=&quot;/cdn-cgi/l/email-protection&quot; data-cfemail=&quot;743c1d131c3438405a44&quot;&gt;[email&amp;#160;protected]&lt;/a&gt;&lt;script cf-hash='f9e31' type=&quot;text/javascript&quot;&gt;\n/* &lt;![CDATA[ */!function(){try{var t=&quot;currentScript&quot;in document?document.currentScript:function(){for(var t=document.getElementsByTagName(&quot;script&quot;),e=t.length;e--;)if(t[e].getAttribute(&quot;cf-hash&quot;))return t[e]}();if(t&amp;&amp;t.previousSibling){var e,r,n,i,c=t.previousSibling,a=c.getAttribute(&quot;data-cfemail&quot;);if(a){for(e=&quot;&quot;,r=parseInt(a.substr(0,2),16),n=2;a.length-n;n+=2)i=parseInt(a.substr(n,2),16)^r,e+=String.fromCharCode(i);e=document.createTextNode(e),c.parentNode.replaceChild(e,c)}}}catch(u){}}();/* ]]&gt; */&lt;/script&gt;\nFormat settings, CABAC         : Yes\nFormat settings, ReFrames      : 4 frames\nCodec ID                       : avc1\nCodec ID/Info                  : Advanced Video Coding\nDuration                       : 22mn 37s\nBit rate                       : 7 840 Kbps\nWidth                          : 1 920 pixels\nHeight                         : 1 080 pixels\nDisplay aspect ratio           : 16:9\nFrame rate mode                : Constant\nFrame rate                     : 23.976 fps\nColor space                    : YUV\nChroma subsampling             : 4:2:0\nBit depth                      : 8 bits\nScan type                      : Progressive\nBits/(Pixel*Frame)             : 0.158\nStream size                    : 1.23 GiB (98%)\nWriting library                : x264 core 118 r2085 8a62835\nEncoding settings              : cabac=1 / ref=1 / deblock=1:0:0 / analyse=0x3:0x133 / me=umh / subme=0 / psy=1 / psy_rd=1.00:0.00 / mixed_ref=0 / me_range=16 / chroma_me=1 / trellis=1 / 8x8dct=1 / cqm=0 / deadzone=21,11 / fast_pskip=1 / chroma_qp_offset=0 / threads=12 / sliced_threads=0 / nr=0 / decimate=1 / interlaced=0 / bluray_compat=0 / constrained_intra=0 / bframes=3 / b_pyramid=2 / b_adapt=2 / b_bias=0 / direct=1 / weightb=1 / open_gop=0 / weightp=2 / keyint=71 / keyint_min=36 / scenecut=40 / intra_refresh=0 / rc_lookahead=60 / rc=2pass / mbtree=1 / bitrate=7840 / ratetol=1.0 / qcomp=0.60 / qpmin=0 / qpmax=69 / qpstep=4 / cplxblur=1.0 / qblur=0.5 / vbv_maxrate=10192 / vbv_bufsize=10192 / nal_hrd=none / ip_ratio=1.40 / aq=1:1.00\nLanguage                       : English\nEncoded date                   : UTC 2012-08-14 08:00:00\nTagged date                    : UTC 2012-08-15 00:15:25\n\nAudio\nID                             : 2\nFormat                         : AAC\nFormat/Info                    : Advanced Audio Codec\nFormat profile                 : LC\nCodec ID                       : 40\nDuration                       : 22mn 38s\nBit rate mode                  : Variable\nBit rate                       : 151 Kbps\nMaximum bit rate               : 160 Kbps\nChannel(s)                     : 2 channels\nChannel positions              : Front: L R\nSampling rate                  : 44.1 KHz\nCompression mode               : Lossy\nDelay relative to video        : 83ms\nStream size                    : 24.5 MiB (2%)\nEncoded date                   : UTC 2012-08-14 08:00:00\nTagged date                    : UTC 2012-08-15 00:15:25\n\n","torrent":{"xt":"urn:btih:10b055c7f1d9775fc223ce5f0f5f8c829331f987","amp;dn":"Gravity+Falls+S01+E01-E12+1080p+ANON","amp;tr":["udp%3A%2F%2Ftracker.openbittorrent.com%3A80","udp%3A%2F%2Fopen.demonii.com%3A1337","udp%3A%2F%2Ftracker.coppersurfer.tk%3A6969","udp%3A%2F%2Fexodus.desync.com%3A6969"],"infoHash":"10b055c7f1d9775fc223ce5f0f5f8c829331f987","infoHashBuffer":{"type":"Buffer","data":[16,176,85,199,241,217,119,95,194,35,206,95,15,95,140,130,147,49,249,135]},"announce":[],"urlList":[]}}